<?xml version="1.0" encoding="UTF-8"?>
<svg width="600" height="140" version="1.1" viewBox="0 0 158.8 37.04" xmlns="http://www.w3.org/2000/svg" xmlns:cc="http://creativecommons.org/ns#" xmlns:dc="http://purl.org/dc/elements/1.1/" xmlns:rdf="http://www.w3.org/1999/02/22-rdf-syntax-ns#" xmlns:xlink="http://www.w3.org/1999/xlink"><title>base</title><defs><linearGradient id="linearGradient2630"><stop stop-color="#c1c1c1" offset="0"/><stop stop-color="#c1c1c1" stop-opacity="0" offset="1"/></linearGradient><filter id="filter2162" x="-.006899" y="-.01229" width="1.014" height="1.025" color-interpolation-filters="sRGB"><feGaussianBlur stdDeviation="0.0015130859"/></filter><filter id="filter2166" x="-.02022" y="-.03899" width="1.04" height="1.078" color-interpolation-filters="sRGB"><feGaussianBlur stdDeviation="0.22916224"/></filter><linearGradient id="linearGradient2636" x1="95.64" x2="96.53" y1="12.79" y2="12.79" gradientTransform="translate(0 -.007853)" gradientUnits="userSpaceOnUse"><stop stop-color="#c1c1c1" offset="0"/><stop stop-color="#c1c1c1" stop-opacity=".2508" offset="1"/></linearGradient><linearGradient id="linearGradient3546" x1="95.64" x2="96.53" y1="12.79" y2="12.79" gradientTransform="translate(0 76.51)" gradientUnits="userSpaceOnUse" xlink:href="#linearGradient2630"/><linearGradient id="linearGradient3554" x1="95.64" x2="96.53" y1="12.79" y2="12.79" gradientTransform="matrix(-1 0 0 1 159 -.02356)" gradientUnits="userSpaceOnUse"><stop stop-color="#c1c1c1" offset="0"/><stop stop-color="#c1c1c1" stop-opacity=".2541" offset="1"/></linearGradient><filter id="filter3837" x="-.004167" y="-.0002547" width="1.008" height="1.001" color-interpolation-filters="sRGB"><feGaussianBlur stdDeviation="0.0017226413"/></filter><filter id="filter3841" x="-.004167" y="-.0002547" width="1.008" height="1.001" color-interpolation-filters="sRGB"><feGaussianBlur stdDeviation="0.0017226413"/></filter><linearGradient id="linearGradient3851" x1="95.64" x2="96.53" y1="12.79" y2="12.79" gradientTransform="matrix(0 1.07 .9999 0 75.33 -5.218)" gradientUnits="userSpaceOnUse" xlink:href="#linearGradient2630"/><linearGradient id="linearGradient3856" x1="95.64" x2="96.53" y1="12.79" y2="12.79" gradientTransform="matrix(0 -1.07 .9999 0 75.32 107.5)" gradientUnits="userSpaceOnUse"><stop stop-color="#c1c1c1" offset="0"/><stop stop-color="#c1c1c1" stop-opacity=".2541" offset="1"/></linearGradient><filter id="filter3858" x="-.0005571" y="-.01758" width="1.001" height="1.035" color-interpolation-filters="sRGB"><feGaussianBlur stdDeviation="0.0077765541"/></filter><filter id="filter4089" x="-.01428" y="-.03225" width="1.029" height="1.064" color-interpolation-filters="sRGB"><feGaussianBlur stdDeviation="0.16075205"/></filter><linearGradient id="linearGradient6909" x1="156.1" x2="158.9" y1="3.241" y2="18.92" gradientTransform="translate(.1871)" gradientUnits="userSpaceOnUse"><stop stop-color="#fff" stop-opacity="0" offset="0"/><stop stop-color="#fff" stop-opacity="0" offset=".3362"/><stop stop-color="#fff" stop-opacity=".07818" offset=".976"/><stop stop-color="#fff" stop-opacity="0" offset="1"/></linearGradient></defs><g><path d="m61.04 1.918c-0.07264 0-0.1435 0.00726-0.2119 0.02119-0.06841 0.01393-0.1346 0.03451-0.1974 0.06098-0.06279 0.02647-0.1225 0.05901-0.1783 0.09664-0.05579 0.03763-0.1076 0.08024-0.155 0.1276-0.0474 0.0474-0.09001 0.09924-0.1276 0.155-0.03763 0.05579-0.07017 0.1155-0.09663 0.1783-0.02647 0.06279-0.04705 0.129-0.06098 0.1974-0.01393 0.06841-0.02119 0.1392-0.02119 0.2119v19.66c0 0.07264 0.0073 0.1435 0.02119 0.2119 0.01393 0.06841 0.03451 0.1346 0.06098 0.1974 0.02647 0.06279 0.05901 0.1225 0.09663 0.1783 0.03763 0.05579 0.08024 0.1076 0.1276 0.155 0.0474 0.0474 0.09924 0.09001 0.155 0.1276 0.05579 0.03763 0.1155 0.07017 0.1783 0.09663 0.06279 0.02647 0.129 0.04705 0.1974 0.06098 0.06841 0.01393 0.1392 0.02119 0.2119 0.02119h36.66c0.07264 0 0.1435-0.0073 0.2119-0.02119 0.06841-0.01393 0.1346-0.03451 0.1974-0.06098 0.06279-0.02647 0.1225-0.05901 0.1783-0.09663 0.05579-0.03763 0.1076-0.08024 0.155-0.1276 0.0474-0.0474 0.09002-0.09924 0.1276-0.155 0.03763-0.05579 0.07017-0.1155 0.09663-0.1783 0.02647-0.06279 0.04705-0.129 0.06098-0.1974 0.01393-0.06841 0.02119-0.1392 0.02119-0.2119v-19.66c0-0.07264-0.0073-0.1435-0.02119-0.2119-0.01393-0.06841-0.03451-0.1346-0.06098-0.1974-0.02647-0.06279-0.05901-0.1225-0.09663-0.1783-0.03763-0.05579-0.08024-0.1076-0.1276-0.155-0.0474-0.0474-0.09924-0.09002-0.155-0.1276-0.05579-0.03763-0.1155-0.07017-0.1783-0.09664-0.06279-0.02647-0.129-0.04705-0.1974-0.06098-0.0684-0.01393-0.1392-0.02119-0.2119-0.02119zm0.5261 1.551h35.72v18.52h-35.72z" fill="#c1c1c1" filter="url(#filter2162)" stop-color="#000000" stroke="#6f6f6f" stroke-linecap="round" stroke-linejoin="round" stroke-miterlimit="5.1" stroke-width=".5276" style="paint-order:markers fill stroke"/><path d="m0 0v37.04h158.8v-37.04zm61.04 1.918h36.66c0.07264 0 0.1435 0.00726 0.2119 0.02119 0.06841 0.01393 0.1346 0.03451 0.1974 0.06098 0.06279 0.02647 0.1225 0.05901 0.1783 0.09664 0.05579 0.03763 0.1076 0.08024 0.155 0.1276 0.0474 0.0474 0.09002 0.09924 0.1276 0.155 0.03763 0.05579 0.07017 0.1155 0.09663 0.1783 0.02647 0.06279 0.04705 0.129 0.06098 0.1974 0.01393 0.06841 0.02119 0.1392 0.02119 0.2119v19.66c0 0.07264-0.0073 0.1435-0.02119 0.2119-0.01393 0.06841-0.03451 0.1346-0.06098 0.1974-0.02647 0.06279-0.05901 0.1225-0.09663 0.1783-0.03763 0.05579-0.08024 0.1076-0.1276 0.155-0.0474 0.0474-0.09924 0.09001-0.155 0.1276-0.05579 0.03763-0.1155 0.07017-0.1783 0.09663-0.06279 0.02647-0.129 0.04705-0.1974 0.06098-0.0684 0.01393-0.1392 0.02119-0.2119 0.02119h-36.66c-0.07264 0-0.1435-0.0073-0.2119-0.02119-0.06841-0.01393-0.1346-0.03451-0.1974-0.06098-0.06279-0.02647-0.1225-0.05901-0.1783-0.09663-0.05579-0.03763-0.1076-0.08024-0.155-0.1276-0.0474-0.0474-0.09001-0.09924-0.1276-0.155-0.03763-0.05579-0.07017-0.1155-0.09663-0.1783-0.02647-0.06279-0.04705-0.129-0.06098-0.1974-0.01393-0.06841-0.02119-0.1392-0.02119-0.2119v-19.66c0-0.07264 0.0073-0.1435 0.02119-0.2119 0.01393-0.06841 0.03451-0.1346 0.06098-0.1974 0.02647-0.06279 0.05901-0.1225 0.09663-0.1783 0.03763-0.05579 0.08024-0.1076 0.1276-0.155 0.0474-0.0474 0.09924-0.09002 0.155-0.1276 0.05579-0.03763 0.1155-0.07017 0.1783-0.09664 0.06279-0.02647 0.129-0.04705 0.1974-0.06098 0.06841-0.01393 0.1392-0.02119 0.2119-0.02119zm71.94 0.7653h12.29v19.88h-12.29zm-116.9 3.235h30.72c1.495 0 2.698 1.203 2.698 2.698v11.27c0 1.495-1.203 2.698-2.698 2.698h-30.72c-1.495 0-2.698-1.203-2.698-2.698v-11.27c0-1.495 1.203-2.698 2.698-2.698zm-0.8459 20.52h128.3c1.099 0 1.984 0.885 1.984 1.984s-0.885 1.984-1.984 1.984h-128.3c-1.099 0-1.984-0.885-1.984-1.984s0.885-1.984 1.984-1.984z" fill="#8c8c8c" stop-color="#000000" style="paint-order:markers fill stroke"/><path d="m61.62 3.516h35.72v18.52h-35.72z" fill-opacity="0" filter="url(#filter2166)" stop-color="#000000" stroke="#676767" stroke-linecap="round" stroke-linejoin="round" stroke-miterlimit="5.1" stroke-width=".3442" style="mix-blend-mode:normal;paint-order:markers fill stroke"/><text x="-1.4967093" y="63.048882" fill="#000000" font-family="sans-serif" font-size="5.644px" letter-spacing="0px" stroke-width=".2646" word-spacing="0px" style="line-height:1.25" xml:space="preserve"><tspan x="-1.4967093" y="63.048882" font-size="5.644px" stroke-width=".2646">135 x 70 buco torretta</tspan></text><g stroke-linecap="round" stroke-linejoin="round" stroke-miterlimit="5.1"><path d="m15.21 64.67h128.3c1.099 0 1.984 0.885 1.984 1.984s-0.885 1.984-1.984 1.984h-128.3c-1.099 0-1.984-0.885-1.984-1.984s0.885-1.984 1.984-1.984z" fill-opacity="0" stop-color="#000000" stroke="#676767" stroke-width=".3442" style="paint-order:markers fill stroke"/><path d="m16.06 5.919h30.72c1.495 0 2.698 1.203 2.698 2.698v11.27c0 1.495-1.203 2.698-2.698 2.698h-30.72c-1.495 0-2.698-1.203-2.698-2.698v-11.27c0-1.495 1.203-2.698 2.698-2.698z" fill="none" stop-color="#000000" stroke="#6f6f6f" stroke-width=".3442" style="paint-order:markers fill stroke"/><rect x="133" y="2.675" width="12.29" height="19.88" ry="0" fill="none" stop-color="#000000" stroke="#6f6f6f" stroke-width=".3071" style="paint-order:markers fill stroke"/><path d="m2.171 1.191h155.7v34.79h-155.7z" fill="url(#linearGradient6909)" stop-color="#000000" stroke-opacity=".2454" stroke-width=".02646" style="paint-order:markers fill stroke"/></g><text x="-1.4967093" y="56.169716" fill="#000000" font-family="sans-serif" font-size="5.644px" letter-spacing="0px" stroke-width=".2646" word-spacing="0px" style="line-height:1.25" xml:space="preserve"><tspan x="-1.4967093" y="56.169716" font-size="5.644px" stroke-width=".2646">600 x 140 base in px</tspan></text><path d="m62.36 4.194v17.17h34.24v-17.17zm0.3778 0.07596h33.5l-1.077 1.061h-31.42zm-0.2992 0.3592 0.9922 1.006v14.15l-0.9922 1.077zm34.08 0.04289v16.23l-0.9922-1.077v-14.15zm-32.77 0.9638h31.47v14.28h-31.47zm0.03204 14.59h31.52l1 1.062h-33.52z" fill="#c1c1c1" stop-color="#000000" stroke="#282828" stroke-linecap="round" stroke-linejoin="round" stroke-miterlimit="5.1" stroke-opacity=".2454" stroke-width=".1323" style="paint-order:markers fill stroke"/><path d="m63.75 81.68h31.47v14.28h-31.47z" fill="#c1c1c1" stop-color="#000000" stroke="#282828" stroke-linecap="round" stroke-linejoin="round" stroke-miterlimit="5.1" stroke-width=".1157" style="paint-order:markers fill stroke"/><g><path d="m95.52 5.67 0.9922-1.006v16.23l-0.9922-1.077z" fill="url(#linearGradient2636)" filter="url(#filter3841)" stop-color="#000000" style="paint-order:markers fill stroke"/><path d="m95.52 82.19 0.9922-1.006v16.23l-0.9922-1.077z" fill="url(#linearGradient3546)" stop-color="#000000" style="paint-order:markers fill stroke"/><path d="m63.43 5.654-0.9922-1.006v16.23l0.9922-1.077z" fill="url(#linearGradient3554)" filter="url(#filter3837)" stop-color="#000000" style="paint-order:markers fill stroke"/><path d="m63.74 96.97-1.006 1.061h33.5l-1.077-1.061z" fill="url(#linearGradient3851)" stop-color="#000000" stroke="#000" stroke-linecap="round" stroke-linejoin="round" stroke-miterlimit="5.1" stroke-width=".02737" style="paint-order:markers fill stroke"/><path d="m63.73 5.331-1.006-1.061h33.5l-1.077 1.061z" fill="url(#linearGradient3856)" filter="url(#filter3858)" stop-color="#000000" style="paint-order:markers fill stroke"/><path transform="matrix(1 0 0 -1 0 25.53)" d="m63.73 5.331-1.006-1.061h33.55l-1.011 1.061z" fill="url(#linearGradient3856)" filter="url(#filter3858)" stop-color="#000000" style="paint-order:markers fill stroke"/></g><path d="m64 5.912h30.95v13.71h-30.95z" fill="#c1c1c1" filter="url(#filter4089)" stop-color="#000000" stroke="#282828" stroke-linecap="round" stroke-linejoin="round" stroke-miterlimit="5.1" stroke-width=".1124" style="mix-blend-mode:normal;paint-order:markers fill stroke"/></g><g display="none" stroke="#000" stroke-linecap="round" stroke-linejoin="round" stroke-miterlimit="5.1" stroke-width=".04608"><path d="m72.78 7.47c0.3603 0.00604 1.125 0.9739 1.125 2.184v3.426c0 1.21-0.5019 2.184-1.125 2.184-1.086 0-1.125 0.01825-1.125-0.6954v-4.914c0-1.21 0.7767-2.19 1.125-2.184z" fill="#4c4c4c" stop-color="#000000" style="paint-order:markers fill stroke"/><path d="m86.04 7.47c-0.3603 0.00604-1.125 0.9739-1.125 2.184v3.426c0 1.21 0.5019 2.184 1.125 2.184 1.086 0 1.125 0.01825 1.125-0.6954v-4.914c0-1.21-0.7767-2.19-1.125-2.184z" fill="#4d4d4d" stop-color="#000000" style="paint-order:markers fill stroke"/></g><g display="none"><g transform="translate(-.05847 .02339)"><g fill="#666"><g stroke="#323232" stroke-linecap="round" stroke-linejoin="round" stroke-miterlimit="5.1"><rect x="77.58" y="-5.007" width="3.582" height="23.75" stop-color="#000000" stroke-width=".1232" style="paint-order:markers fill stroke"/><rect x="72.37" y="9.574" width="14.02" height="9.243" ry="2.466" stop-color="#000000" stroke-width=".2244" style="paint-order:markers fill stroke"/><rect x="76.87" y="-5.202" width="5.014" height="3.135" rx=".3879" ry="1.277" stop-color="#000000" stroke-width=".1094" style="paint-order:markers fill stroke"/></g><rect x="73.85" y="9.537" width="11.06" height="8.509" ry="1.206" stop-color="#000000" style="paint-order:markers fill stroke"/><rect x="74.6" y="6.804" width="9.551" height="8.509" ry="1.915" stop-color="#000000" stroke="#323232" stroke-linecap="round" stroke-linejoin="round" stroke-miterlimit="5.1" stroke-width=".2163" style="paint-order:markers fill stroke"/></g><rect x="78.03" y="-1.83" width="2.697" height="8.311" rx=".2855" ry=".2301" fill="#818181" stop-color="#000000" style="paint-order:markers fill stroke"/><rect x="73.72" y="10.77" width="11.32" height="6.859" ry="1.83" fill="#818181" stop-color="#000000" stroke="#323232" stroke-linecap="round" stroke-linejoin="round" stroke-miterlimit="5.1" stroke-width=".09175" style="paint-order:markers fill stroke"/></g><rect x="77.9" y="-4.966" width="2.942" height="2.664" rx=".2276" ry="1.085" fill="#818181" stop-color="#000000" style="paint-order:markers fill stroke"/></g><metadata><rdf:RDF><cc:Work rdf:about=""><dc:title>base</dc:title></cc:Work></rdf:RDF></metadata></svg>
