<?xml version="1.0" encoding="UTF-8"?>
<svg id="svg133" width="600" height="140" version="1.1" viewBox="0 0 159 37" xmlns="http://www.w3.org/2000/svg" xmlns:cc="http://creativecommons.org/ns#" xmlns:dc="http://purl.org/dc/elements/1.1/" xmlns:rdf="http://www.w3.org/1999/02/22-rdf-syntax-ns#" xmlns:xlink="http://www.w3.org/1999/xlink"><title id="title2">base</title><defs id="defs53"><filter id="filter2162" x="-.0069" y="-.0123" width="1.01" height="1.02" color-interpolation-filters="sRGB"><feGaussianBlur id="feGaussianBlur9" stdDeviation="0.0015130859"/></filter><filter id="filter2166" x="-.0202" y="-.039" width="1.04" height="1.08" color-interpolation-filters="sRGB"><feGaussianBlur id="feGaussianBlur12" stdDeviation="0.22916224"/></filter><linearGradient id="linearGradient2636" x1="95.6" x2="96.5" y1="12.8" y2="12.8" gradientTransform="translate(0 -.00785)" gradientUnits="userSpaceOnUse"><stop id="stop15" stop-color="#c1c1c1" offset="0"/><stop id="stop17" stop-color="#c1c1c1" stop-opacity=".251" offset="1"/></linearGradient><linearGradient id="linearGradient3554" x1="95.6" x2="96.5" y1="12.8" y2="12.8" gradientTransform="matrix(-1 0 0 1 159 -.0236)" gradientUnits="userSpaceOnUse"><stop id="stop21" stop-color="#c1c1c1" offset="0"/><stop id="stop23" stop-color="#c1c1c1" stop-opacity=".254" offset="1"/></linearGradient><filter id="filter3837" x="-.00417" y="-.000255" width="1.01" height="1" color-interpolation-filters="sRGB"><feGaussianBlur id="feGaussianBlur26" stdDeviation="0.0017226413"/></filter><filter id="filter3841" x="-.00417" y="-.000255" width="1.01" height="1" color-interpolation-filters="sRGB"><feGaussianBlur id="feGaussianBlur29" stdDeviation="0.0017226413"/></filter><linearGradient id="linearGradient3856" x1="95.6" x2="96.5" y1="12.8" y2="12.8" gradientTransform="matrix(0 -1.07 1 0 75.3 108)" gradientUnits="userSpaceOnUse"><stop id="stop33" stop-color="#c1c1c1" offset="0"/><stop id="stop35" stop-color="#c1c1c1" stop-opacity=".254" offset="1"/></linearGradient><filter id="filter3858" x="-.000557" y="-.0176" width="1" height="1.04" color-interpolation-filters="sRGB"><feGaussianBlur id="feGaussianBlur38" stdDeviation="0.0077765541"/></filter><filter id="filter4089" x="-.0143" y="-.0322" width="1.03" height="1.06" color-interpolation-filters="sRGB"><feGaussianBlur id="feGaussianBlur41" stdDeviation="0.16075205"/></filter><linearGradient id="linearGradient6909" x1="156" x2="159" y1="3.24" y2="18.9" gradientTransform="translate(.187)" gradientUnits="userSpaceOnUse"><stop id="stop44" stop-color="#fff" stop-opacity="0" offset="0"/><stop id="stop46" stop-color="#fff" stop-opacity="0" offset=".336"/><stop id="stop48" stop-color="#fff" stop-opacity=".0782" offset=".976"/><stop id="stop50" stop-color="#fff" stop-opacity="0" offset="1"/></linearGradient></defs><g id="g99"><path id="path55" d="m61 1.92c-0.0726 0-0.144 0.00726-0.212 0.0212-0.0684 0.0139-0.135 0.0345-0.197 0.061-0.0628 0.0265-0.122 0.059-0.178 0.0966-0.0558 0.0376-0.108 0.0802-0.155 0.128-0.0474 0.0474-0.09 0.0992-0.128 0.155-0.0376 0.0558-0.0702 0.116-0.0966 0.178-0.0265 0.0628-0.047 0.129-0.061 0.197-0.0139 0.0684-0.0212 0.139-0.0212 0.212v19.7c0 0.0726 0.0073 0.144 0.0212 0.212 0.0139 0.0684 0.0345 0.135 0.061 0.197 0.0265 0.0628 0.059 0.122 0.0966 0.178 0.0376 0.0558 0.0802 0.108 0.128 0.155 0.0474 0.0474 0.0992 0.09 0.155 0.128 0.0558 0.0376 0.116 0.0702 0.178 0.0966 0.0628 0.0265 0.129 0.047 0.197 0.061 0.0684 0.0139 0.139 0.0212 0.212 0.0212h36.7c0.0726 0 0.144-0.0073 0.212-0.0212 0.0684-0.0139 0.135-0.0345 0.197-0.061 0.0628-0.0265 0.122-0.059 0.178-0.0966 0.0558-0.0376 0.108-0.0802 0.155-0.128 0.0474-0.0474 0.09-0.0992 0.128-0.155 0.0376-0.0558 0.0702-0.116 0.0966-0.178 0.0265-0.0628 0.047-0.129 0.061-0.197 0.0139-0.0684 0.0212-0.139 0.0212-0.212v-19.7c0-0.0726-0.0073-0.144-0.0212-0.212-0.0139-0.0684-0.0345-0.135-0.061-0.197-0.0265-0.0628-0.059-0.122-0.0966-0.178-0.0376-0.0558-0.0802-0.108-0.128-0.155-0.0474-0.0474-0.0992-0.09-0.155-0.128-0.0558-0.0376-0.116-0.0702-0.178-0.0966-0.0628-0.0265-0.129-0.047-0.197-0.061s-0.139-0.0212-0.212-0.0212zm0.526 1.55h35.7v18.5h-35.7z" fill="#c1c1c1" filter="url(#filter2162)" stop-color="#000000" stroke="#6f6f6f" stroke-linecap="round" stroke-linejoin="round" stroke-miterlimit="5.1" stroke-width=".528" style="paint-order:markers fill stroke"/><path id="path57" d="m0 0v37h159v-37zm61 1.92h36.7c0.0726 0 0.144 0.00726 0.212 0.0212 0.0684 0.0139 0.135 0.0345 0.197 0.061 0.0628 0.0265 0.122 0.059 0.178 0.0966 0.0558 0.0376 0.108 0.0802 0.155 0.128 0.0474 0.0474 0.09 0.0992 0.128 0.155 0.0376 0.0558 0.0702 0.116 0.0966 0.178 0.0265 0.0628 0.047 0.129 0.061 0.197 0.0139 0.0684 0.0212 0.139 0.0212 0.212v19.7c0 0.0726-0.0073 0.144-0.0212 0.212-0.0139 0.0684-0.0345 0.135-0.061 0.197-0.0265 0.0628-0.059 0.122-0.0966 0.178-0.0376 0.0558-0.0802 0.108-0.128 0.155-0.0474 0.0474-0.0992 0.09-0.155 0.128-0.0558 0.0376-0.116 0.0702-0.178 0.0966-0.0628 0.0265-0.129 0.047-0.197 0.061s-0.139 0.0212-0.212 0.0212h-36.7c-0.0726 0-0.144-0.0073-0.212-0.0212-0.0684-0.0139-0.135-0.0345-0.197-0.061-0.0628-0.0265-0.122-0.059-0.178-0.0966-0.0558-0.0376-0.108-0.0802-0.155-0.128-0.0474-0.0474-0.09-0.0992-0.128-0.155-0.0376-0.0558-0.0702-0.116-0.0966-0.178-0.0265-0.0628-0.047-0.129-0.061-0.197-0.0139-0.0684-0.0212-0.139-0.0212-0.212v-19.7c0-0.0726 0.0073-0.144 0.0212-0.212 0.0139-0.0684 0.0345-0.135 0.061-0.197 0.0265-0.0628 0.059-0.122 0.0966-0.178 0.0376-0.0558 0.0802-0.108 0.128-0.155 0.0474-0.0474 0.0992-0.09 0.155-0.128 0.0558-0.0376 0.116-0.0702 0.178-0.0966 0.0628-0.0265 0.129-0.047 0.197-0.061 0.0684-0.0139 0.139-0.0212 0.212-0.0212zm71.9 0.765h12.3v19.9h-12.3zm-117 3.24h30.7c1.5 0 2.7 1.2 2.7 2.7v11.3c0 1.5-1.2 2.7-2.7 2.7h-30.7c-1.5 0-2.7-1.2-2.7-2.7v-11.3c0-1.5 1.2-2.7 2.7-2.7zm-0.846 20.5h128c1.1 0 1.98 0.885 1.98 1.98s-0.885 1.98-1.98 1.98h-128c-1.1 0-1.98-0.885-1.98-1.98s0.885-1.98 1.98-1.98z" fill="#8c8c8c" stop-color="#000000" style="paint-order:markers fill stroke"/><path id="path59" d="m61.6 3.52h35.7v18.5h-35.7z" fill-opacity="0" filter="url(#filter2166)" stop-color="#000000" stroke="#676767" stroke-linecap="round" stroke-linejoin="round" stroke-miterlimit="5.1" stroke-width=".344" style="mix-blend-mode:normal;paint-order:markers fill stroke"/><g id="g73" stroke-linecap="round" stroke-linejoin="round" stroke-miterlimit="5.1"><path id="path67" d="m16.1 5.92h30.7c1.5 0 2.7 1.2 2.7 2.7v11.3c0 1.5-1.2 2.7-2.7 2.7h-30.7c-1.5 0-2.7-1.2-2.7-2.7v-11.3c0-1.5 1.2-2.7 2.7-2.7z" fill="none" stop-color="#000000" stroke="#6f6f6f" stroke-width=".344" style="paint-order:markers fill stroke"/><rect id="rect69" x="133" y="2.68" width="12.3" height="19.9" ry="0" fill="none" stop-color="#000000" stroke="#6f6f6f" stroke-width=".307" style="paint-order:markers fill stroke"/><path id="path71" d="m2.17 1.19h156v34.8h-156z" fill="url(#linearGradient6909)" stop-color="#000000" stroke-opacity=".245" stroke-width=".0265" style="paint-order:markers fill stroke"/></g><path id="path79" d="m62.4 4.19v17.2h34.2v-17.2zm0.378 0.076h33.5l-1.08 1.06h-31.4zm-0.299 0.359 0.992 1.01v14.2l-0.992 1.08zm34.1 0.0429v16.2l-0.992-1.08v-14.2zm-32.8 0.964h31.5v14.3h-31.5zm0.032 14.6h31.5l1 1.06h-33.5z" fill="#c1c1c1" stop-color="#000000" stroke="#282828" stroke-linecap="round" stroke-linejoin="round" stroke-miterlimit="5.1" stroke-opacity=".245" stroke-width=".132" style="paint-order:markers fill stroke"/><g id="g95"><path id="path83" d="m95.5 5.67 0.992-1.01v16.2l-0.992-1.08z" fill="url(#linearGradient2636)" filter="url(#filter3841)" stop-color="#000000" style="paint-order:markers fill stroke"/><path id="path87" d="m63.4 5.65-0.992-1.01v16.2l0.992-1.08z" fill="url(#linearGradient3554)" filter="url(#filter3837)" stop-color="#000000" style="paint-order:markers fill stroke"/><path id="path91" d="m63.7 5.33-1.01-1.06h33.5l-1.08 1.06z" fill="url(#linearGradient3856)" filter="url(#filter3858)" stop-color="#000000" style="paint-order:markers fill stroke"/><path id="path93" transform="matrix(1 0 0 -1 0 25.5)" d="m63.7 5.33-1.01-1.06h33.6l-1.01 1.06z" fill="url(#linearGradient3856)" filter="url(#filter3858)" stop-color="#000000" style="paint-order:markers fill stroke"/></g><path id="path97" d="m64 5.91h31v13.7h-31z" fill="#c1c1c1" filter="url(#filter4089)" stop-color="#000000" stroke="#282828" stroke-linecap="round" stroke-linejoin="round" stroke-miterlimit="5.1" stroke-width=".112" style="mix-blend-mode:normal;paint-order:markers fill stroke"/></g><metadata id="metadata131"><rdf:RDF><cc:Work rdf:about=""><dc:title>base</dc:title></cc:Work></rdf:RDF></metadata></svg>
