<?xml version="1.0" encoding="UTF-8"?>
<svg id="svg4866" width="100" height="100" version="1.1" viewBox="0 0 100 100" xmlns="http://www.w3.org/2000/svg" xmlns:cc="http://creativecommons.org/ns#" xmlns:dc="http://purl.org/dc/elements/1.1/" xmlns:rdf="http://www.w3.org/1999/02/22-rdf-syntax-ns#"><title id="title5368">bullutPit-opt1</title><defs id="defs4863"><filter id="filter6488" x="-.0651" y="-.116" width="1.13" height="1.22" color-interpolation-filters="sRGB"><feGaussianBlur id="feGaussianBlur6490" stdDeviation="0.028621437"/></filter><filter id="filter6484" x="-.0259" y="-.0126" width="1.08" height="1.04" color-interpolation-filters="sRGB"><feGaussianBlur id="feGaussianBlur6486" stdDeviation="0.043861808"/></filter><filter id="filter6480" x="-.024" y="-.0333" width="1.05" height="1.06" color-interpolation-filters="sRGB"><feGaussianBlur id="feGaussianBlur6482" stdDeviation="0.10786019"/></filter><radialGradient id="radialGradient5287" cx="70" cy="27" r="38" gradientTransform="matrix(.737 .191 -.219 .863 -21.7 -137)" gradientUnits="userSpaceOnUse"><stop id="stop2400" stop-color="#33332f" stop-opacity=".5" offset=".21"/><stop id="stop2402" stop-color="#7a4d3f" stop-opacity=".75" offset=".43"/><stop id="stop2404" stop-color="#b49384" stop-opacity=".93" offset=".51"/><stop id="stop2406" stop-color="#b49384" offset=".55"/><stop id="stop2408" stop-color="#b49376" stop-opacity="0" offset=".84"/></radialGradient></defs><g id="layer1"><g id="g6498" transform="matrix(1.5 -.84 .93 1.3 42.9 212)"><g id="g1362" transform="rotate(181 56 -85)"><g id="g1469" transform="translate(-4.78 1.49)"><ellipse id="path5256" transform="matrix(.924 .382 -.349 .937 0 0)" cx="25" cy="-100" rx="29.9" ry="33.1" fill="url(#radialGradient5287)" stop-color="#000000" style="fill:url(#radialGradient5287);font-variation-settings:normal;opacity:.752"/><path id="path2277" transform="matrix(1.2,0,0,1.2,-393,-145)" d="m383 59-4.8 1.4-3.5-0.021-2.1-2-3.8-3.6-3.3-2.1-1.1-3.1 0.49-3.6-0.16-2-1.8 5-0.59 4.1 2.9 7 4.9 2.6 6.5 0.8 5.4-3.2z" fill="#33332f" filter="url(#filter6484)" stop-color="#000000" stroke="#33332f" stroke-width=".41" style="filter:url(#filter6484);font-variation-settings:normal;mix-blend-mode:normal;stroke-width:.834"/><path id="path1423" transform="matrix(1.2,0,0,1.2,-393,-145)" d="m369 41-3.5 1.8 6.1-5.8 4.4-1.1 4 0.18 3.1 1.1 2.6 2.4 1.7 3.2 0.52 3.1 0.29 2.4-0.61 4.5-1.8 3.5 0.62-2.7-0.31-2.9 0.6-2.8-0.52-2.8-0.75-2.2-1.1-2.2-1.9-2-3.1-0.98-2.7 1.1-0.81-0.52-1.8-0.36-2.7 0.88z" fill="#33332f" filter="url(#filter6480)" stroke="#33332f" stroke-width=".41" style="mix-blend-mode:normal;stroke-width:.834"/></g><path id="path2275" transform="matrix(1.2 0 1.3e-8 1.2 -400 -138)" d="m379 48 1.1-0.14 1.1-0.11 0.32-1.4-2.4-2.3-1.3-0.88-1.4 0.81-1.5 0.26-0.98 1.3 0.039 0.69 1 0.081 1.1-1.4 1.3-0.73 1.1 0.29 0.95 1.1 1.4 1.6-1.1 0.29-1.5 0.31z" fill="#33332f" filter="url(#filter6488)" stop-color="#000000" stroke="#33332f" stroke-width=".41" style="fill:#33332f;filter:url(#filter6488);font-variation-settings:normal;mix-blend-mode:normal;stroke-width:.834"/></g></g></g><metadata id="metadata5366"><rdf:RDF><cc:Work rdf:about=""><dc:title>bullutPit-opt1</dc:title></cc:Work></rdf:RDF></metadata></svg>
