<?xml version="1.0" encoding="UTF-8"?>
<svg id="svg4866" width="100" height="100" version="1.1" viewBox="0 0 100 100" xmlns="http://www.w3.org/2000/svg" xmlns:cc="http://creativecommons.org/ns#" xmlns:dc="http://purl.org/dc/elements/1.1/" xmlns:rdf="http://www.w3.org/1999/02/22-rdf-syntax-ns#" xmlns:xlink="http://www.w3.org/1999/xlink"><title id="title5368">bullutPit-opt3</title><defs id="defs4863"><linearGradient id="bullet"><stop id="stop2400" stop-color="#33332f" stop-opacity=".5" offset=".21"/><stop id="stop2402" stop-color="#7a4d3f" stop-opacity=".75" offset=".43"/><stop id="stop2404" stop-color="#b49384" stop-opacity=".93" offset=".51"/><stop id="stop2406" stop-color="#b49384" offset=".55"/><stop id="stop2408" stop-color="#b49376" stop-opacity="0" offset=".84"/></linearGradient><filter id="filter6484" x="-.241" y="-.191" width="1.47" height="1.35" color-interpolation-filters="sRGB"><feGaussianBlur id="feGaussianBlur6486" stdDeviation="0.1002619"/></filter><radialGradient id="radialGradient1742" cx="-52" cy="233" r="33" gradientTransform="matrix(1.6,2e-8,-2e-8,1.6,-182,-814)" gradientUnits="userSpaceOnUse" xlink:href="#bullet"/><radialGradient id="radialGradient1806" cx="-52" cy="233" r="33" gradientTransform="matrix(.62 0 0 .62 173 -667)" gradientUnits="userSpaceOnUse" xlink:href="#bullet"/></defs><metadata id="metadata5366"><rdf:RDF><cc:Work rdf:about=""><dc:title>bullutPit-opt3</dc:title></cc:Work></rdf:RDF></metadata><g id="g5644" transform="matrix(.66 -.64 .64 .66 512 173)"><g id="g2456" fill="#33332f" stroke="#33332f" stroke-width=".48"><path id="path1526" transform="matrix(1.3,0,0,1.3,-340,-261)" d="m67-125 1.3 4.6 4.2 2.1 3.4-4.8 2.6-3.5-0.56-4.6 3.4-4.2-2.6-3.2-1.2-1-0.72-3.9 1.4-2.2-2.4-4.1-3.7-2.3-1.8-2.7-2.6 0.24-3.7-1.9-2.4-0.8-3.9-1.4-4.3 0.32-7.8 6.4-0.96 3 1 2.1 1.5-2.5 3-1.4 2.2-1.8 4.1-2.6-3.1 4.1 4-0.56 2.4-0.8 2.6 1.4 3.3 1.2 3.4 2.8 1.4 2.4 1.8 0.4-0.96 4.2 1.2 4.6 0.24 4.2z" filter="url(#filter6484)" stop-color="#000000" style="-inkscape-stroke:none;font-variation-settings:normal"/><path id="path1553" transform="matrix(1.3,0,0,1.3,-340,-261)" d="m55-140-0.6-1.1v2.2l-0.92 0.36 0.48 2 1.4-0.6 1.4 0.6 0.8 1.1 0.64-1 1.4-0.12 2 1.3 0.04-0.68-1.8-1.5-1.8-0.52-0.64 1.2-0.2-1.1-0.96 0.28-1.6-0.28 0.68-0.88z" filter="url(#filter6484)" stop-color="#000000" style="-inkscape-stroke:none;font-variation-settings:normal"/><path id="path1555" transform="matrix(1.3,0,0,1.3,-340,-261)" d="m39-136 0.68-1.6-1.2-0.12-0.52-1.8-1.2 3.5 0.16 4.4 2.6 2.3 1.9 2.8 1.2 1.4 2.2-0.8-0.52-0.8-1.8-0.48-2.7-3.1-1.6-3.8z" filter="url(#filter6484)" stop-color="#000000" style="-inkscape-stroke:none;font-variation-settings:normal"/><path id="path1557" transform="matrix(1.3,0,0,1.3,-341,-247)" d="m48-173 0.4 0.4 1.4 1.5 0.96-3 0.76 0.32 0.16-2.8 1.6 0.52 1 0.56 2 3.3 0.68 0.08-0.64-4.8-0.24-1.5-0.96 0.64-0.52-4.2 0.28-3.1-0.84-0.88-0.92 2.8 0.28 1.4-0.2 2.1-1.4 0.12-0.92-0.44-0.96 0.32-0.36 1.2 0.92 1 0.44 0.24 0.12 0.72-0.56 0.72h-1.1z" filter="url(#filter6484)" stop-color="#000000" style="-inkscape-stroke:none;font-variation-settings:normal"/><path id="path1559" transform="matrix(3,0,0,3,-431,86)" d="m53-188-0.71-1.5 0.68-1.3-0.31-0.74 1 0.4 0.74 1.4-0.028 1.2z" filter="url(#filter6484)" stop-color="#000000" style="-inkscape-stroke:none;font-variation-settings:normal"/></g><circle id="path1670" cx="-266" cy="-437" r="53" fill="url(#radialGradient1742)" stop-color="#000000" style="-inkscape-stroke:none;fill:url(#radialGradient1742);font-variation-settings:normal"/><circle id="circle1804" transform="matrix(.63 -.78 .69 .73 0 0)" cx="141" cy="-523" r="20" fill="url(#radialGradient1806)" stop-color="#000000" style="-inkscape-stroke:none;fill:url(#radialGradient1806);font-variation-settings:normal"/></g></svg>
