<?xml version="1.0" encoding="UTF-8"?>
<svg id="svg4866" width="100" height="100" version="1.1" viewBox="0 0 100 100" xmlns="http://www.w3.org/2000/svg" xmlns:cc="http://creativecommons.org/ns#" xmlns:dc="http://purl.org/dc/elements/1.1/" xmlns:rdf="http://www.w3.org/1999/02/22-rdf-syntax-ns#" xmlns:xlink="http://www.w3.org/1999/xlink"><title id="title5368">bullutPit-opt2</title><defs id="defs4863"><filter id="filter6484" x="-.14" y="-.12" width="1.3" color-interpolation-filters="sRGB"><feGaussianBlur id="feGaussianBlur6486" stdDeviation="0.1002619"/></filter><radialGradient id="radialGradient1301" cx="159" cy="-63" r="44" gradientTransform="matrix(1 0 0 1 -107 111)" gradientUnits="userSpaceOnUse"><stop id="stop2400" stop-color="#33332f" stop-opacity=".5" offset=".21"/><stop id="stop2402" stop-color="#7a4d3f" stop-opacity=".75" offset=".43"/><stop id="stop2404" stop-color="#b49384" stop-opacity=".93" offset=".51"/><stop id="stop2406" stop-color="#b49384" offset=".55"/><stop id="stop2408" stop-color="#b49376" stop-opacity="0" offset=".84"/></radialGradient><filter id="filter6480" x="-.0031" y="-.0031" width="1" height="1" color-interpolation-filters="sRGB"><feGaussianBlur id="feGaussianBlur6482" stdDeviation="0.10786019"/></filter></defs><metadata id="metadata5366"><rdf:RDF><cc:Work rdf:about=""><dc:title>bullutPit-opt2</dc:title></cc:Work></rdf:RDF></metadata><g id="g1309" transform="matrix(.49 .85 -.85 .49 65 -17)"><g fill="#33332f" stroke="#33332f" stroke-width=".49"><path id="path998" d="m40 63 1.8 1.8 0.8-3.8 1.2 4.5 0.16 1.8 2.4 0.16-1.4-7.7-1.6-2-3.8-7.5 1-9.9 4.5-0.64-0.48-3.4 4.8-2.9 3-3.3 5 0.8-0.16-1.9-3.6-3.7 2.3-1.3 5.8 1.6 2 0.32 3.5 1.3-0.88-1.5-3.5-1.9-10-4-4.6 1.2-0.88 1-2.4-1.4-8.3 3.2-3.8 7 0.56 0.88-3.8 1.1-1.3 2.6-0.56 2.4-1.4 0.24-2.9 13 3.7 5.1 2.2 0.16-0.56 2.6 4.1 5.5 2.9 3.1 3.5-0.08 0.96 3 6-0.4 0.32-0.48-6.3-3.7-1.3-3z" filter="url(#filter6484)" stop-color="#000000" style="-inkscape-stroke:none;font-variation-settings:normal"/><path id="path1031" d="m73 62 0.2-0.08 1.1-2.2 1.6 1.3-0.16 1.7 0.12 2.6 1.8 3.2 0.96 2.3 0.64 0.76-2.9 5.2-1.7 0.6-1.4 1.6-2.2 1.8-1.5-0.44-3.4 1.2-1.9 0.96-2.5 1.2 1.9-2.3 0.32-1.5v-1.8l2.5-0.52-1.1 2.7 4.2-1.5 1.9-2.8 3.2-1.3 0.2-2.2-0.56-3.4-5.5 5-0.6-0.28 6.2-6.4-0.36-1.3-1.5-1.4z" filter="url(#filter6484)" stop-color="#000000" style="-inkscape-stroke:none;font-variation-settings:normal"/><path id="path1033" d="m74 36 2.7-3.5 1.2 0.68 0.51 2.5-0.11 2.8-0.34 1.2 1.4 3.8 2.7-3.5 1.8-1.5 0.96 1.1-0.79 2-1.5 3.6 1.8 2.7 0.51 4.9 1.4-0.45 1.3 0.96-0.057 1.7-0.45 1.8 1.8 3.2-2.2 0.28-1.9-2.1-2.1-6.9-0.74-1.5-0.28-2.8-1.1 0.28-1.6-0.45-2-6.1-2.3-2z" filter="url(#filter6484)" stop-color="#000000" style="-inkscape-stroke:none;font-variation-settings:normal"/></g><circle id="path1103" transform="matrix(1.3 0 0 1.3 -14 -13)" cx="52" cy="49" r="42" fill="url(#radialGradient1301)" filter="url(#filter6480)" stop-color="#000000" style="-inkscape-stroke:none;font-variation-settings:normal"/><path id="path1027" d="m49 41-0.34 0.76 0.45 0.82-1.7 2 1.1 0.96 1.8 0.028 0.85-0.91-0.34-1 0.79-1.1-0.59-0.99z" fill="#33332f" filter="url(#filter6484)" stop-color="#000000" stroke="#33332f" stroke-width=".49" style="-inkscape-stroke:none;font-variation-settings:normal"/><path id="path1029" d="m59 42 1.3-0.54 2.5 1.2 1 1.7-1.2 1.5 1.6 1-0.11 0.85-1.8 0.65-2.3-0.25-0.74-0.37 0.71-2.9z" fill="#33332f" filter="url(#filter6484)" stop-color="#000000" stroke="#33332f" stroke-width=".49" style="-inkscape-stroke:none;font-variation-settings:normal"/></g></svg>
