<?xml version="1.0" encoding="UTF-8"?>
<svg id="svg4866" width="100" height="100" version="1.1" viewBox="0 0 100 100" xmlns="http://www.w3.org/2000/svg" xmlns:cc="http://creativecommons.org/ns#" xmlns:dc="http://purl.org/dc/elements/1.1/" xmlns:rdf="http://www.w3.org/1999/02/22-rdf-syntax-ns#" xmlns:xlink="http://www.w3.org/1999/xlink"><title id="title5368">bullutPit-opt4</title><defs id="defs4863"><linearGradient id="bullet"><stop id="stop2400" stop-color="#33332f" stop-opacity=".5" offset=".21"/><stop id="stop2402" stop-color="#7a4d3f" stop-opacity=".75" offset=".43"/><stop id="stop2404" stop-color="#b49384" stop-opacity=".93" offset=".51"/><stop id="stop2406" stop-color="#b49384" offset=".55"/><stop id="stop2408" stop-color="#b49376" stop-opacity="0" offset=".84"/></linearGradient><filter id="filter6484" y="-.14" color-interpolation-filters="sRGB"><feGaussianBlur id="feGaussianBlur6486" stdDeviation="0.1002619"/></filter><radialGradient id="radialGradient2118" cx="-271" cy="13" r="46" gradientTransform="matrix(.36 0 0 .36 105 -392)" gradientUnits="userSpaceOnUse" xlink:href="#bullet"/><radialGradient id="radialGradient2114" cx="-271" cy="13" r="46" gradientTransform="matrix(.59 0 0 .59 168 -433)" gradientUnits="userSpaceOnUse" xlink:href="#bullet"/><radialGradient id="radialGradient2110" cx="-271" cy="13" r="46" gradientTransform="matrix(1.1 0 0 1.1 345 -429)" gradientUnits="userSpaceOnUse" xlink:href="#bullet"/></defs><metadata id="metadata5366"><rdf:RDF><cc:Work rdf:about=""><dc:title>bullutPit-opt4</dc:title></cc:Work></rdf:RDF></metadata><g id="g6105" transform="matrix(.74 -.72 .72 .74 458 181)"><g id="g6095"><g fill="#33332f" stroke="#33332f" stroke-width=".5"><path id="path1939" transform="matrix(.2 -.84 .84 .2 130 85)" d="m444-501-0.052-3.7 2.9-1.2 0.69 2.2 2.2 1.5 0.73 5 4.4 4.8-0.73 7.3-1.8 6.4-2.5 4.1-1.4 3.6-3.6 4.5-3.3 5.7-3.3 0.047-9.2 3.5-5.4-0.1-6.2-1.7 1-2.8 0.86 1.8 2.1 0.87 0.87-2.1-0.035-2.5 7-3.5 1.1-6.5 4.3-3.2 5.1-3.2 4.5-5.9-0.082-5.9 3.2-2.2-1.7-4z" filter="url(#filter6484)" stop-color="#000000" style="-inkscape-stroke:none;font-variation-settings:normal"/><path id="path1941" transform="matrix(.2 -.84 .84 .2 130 85)" d="m381-476-3.3-0.93 1.1 1.9 4.2 0.36 3.9-2.1 3.4-4.5-0.3-3.1-0.77-3.5-2.5-3.2-2.5-0.98-1.2-0.19 1.6 3.3 1.3 2.6-0.29 3.3-0.77 2.8-0.85 2.9-2.6 1.6z" filter="url(#filter6484)" stop-color="#000000" style="-inkscape-stroke:none;font-variation-settings:normal"/><path id="path1943" transform="matrix(.2 -.84 .84 .2 130 85)" d="m380-485-0.26-0.33-1.5-0.66-1.9 1.2-0.15 1.1-0.71-2.1 2.1-1.4 3 0.47 0.1 1.3z" filter="url(#filter6484)" stop-color="#000000" style="-inkscape-stroke:none;font-variation-settings:normal"/></g><circle id="circle2116" transform="rotate(-33)" cx="6.6" cy="-387" r="16" fill="url(#radialGradient2118)" stop-color="#000000" style="-inkscape-stroke:none;font-variation-settings:normal"/><path id="path1947" transform="matrix(.2 -.84 .84 .2 130 85)" d="m416-520 3.6-4.9 3.1 0.38 3.2 5.2 2.1 4-0.11 4.3-2.1 3.8-3 2.2-0.15 1.7 0.06 1.2-0.67 0.43-1.2-1-1.7 1.2-4 0.82-4.1 0.65-2.2-1.3-2.2-0.82-0.4-1.5 0.24-3.9-0.45-2.1-0.83-2-1.2-4.6 2.3-2.4 1.3 1.2-1.6 2.6 0.084 3 0.99 1.2 2.7-2.3 1.2-4 1.2-4.8z" fill="#33332f" filter="url(#filter6484)" stop-color="#000000" stroke="#33332f" stroke-width=".5" style="-inkscape-stroke:none;font-variation-settings:normal"/><circle id="circle2112" transform="rotate(-33)" cx="6.9" cy="-426" r="27" fill="url(#radialGradient2114)" stop-color="#000000" style="-inkscape-stroke:none;font-variation-settings:normal"/></g><circle id="path2042" transform="rotate(-33)" cx="35" cy="-414" r="52" fill="url(#radialGradient2110)" stop-color="#000000" style="-inkscape-stroke:none;font-variation-settings:normal"/></g></svg>
