<?xml version="1.0" encoding="UTF-8"?>
<svg id="svg146" width="120" height="120" version="1.1" viewBox="0 0 31.8 31.8" xmlns="http://www.w3.org/2000/svg" xmlns:cc="http://creativecommons.org/ns#" xmlns:dc="http://purl.org/dc/elements/1.1/" xmlns:rdf="http://www.w3.org/1999/02/22-rdf-syntax-ns#" xmlns:xlink="http://www.w3.org/1999/xlink"><title id="title2">cannon</title><defs id="defs58"><filter id="filter2212" x="-.0273" y="-.00885" width="1.05" height="1.02" style="color-interpolation-filters:sRGB"><feGaussianBlur id="feGaussianBlur2214" stdDeviation="0.030662716"/></filter></defs><g id="g140" transform="translate(-.0938 -1.78)"><g id="g138" transform="translate(-63.4 7.01)"><g id="g134" transform="translate(-.0585 .0234)"><g id="g128" fill="#666"><g id="g122" stroke="#323232" stroke-linecap="round" stroke-linejoin="round" stroke-miterlimit="5.1"><rect id="rect116" x="77.6" y="-5.01" width="3.58" height="23.8" stop-color="#000000" stroke-width=".123" style="fill:#636240;paint-order:markers fill stroke;stroke:#404040"/><rect id="rect118" x="72.4" y="9.57" width="14" height="9.24" ry="2.47" stop-color="#000000" stroke-width=".224" style="fill:#2f3f2b;paint-order:markers fill stroke;stroke:#030303"/><rect id="rect120" x="76.9" y="-5.2" width="5.01" height="3.14" rx=".388" ry="1.28" stop-color="#000000" stroke-width=".109" style="fill:#858665;paint-order:markers fill stroke;stroke-width:.109;stroke:#404040"/></g><rect id="rect124" x="73.3" y="9.21" width="12.1" height="8.83" ry="1.25" stop-color="#000000" style="fill:#636240;paint-order:markers fill stroke;stroke-width:.132;stroke:#313131"/><rect id="rect126" x="74.6" y="6.8" width="9.55" height="8.51" ry="1.92" stop-color="#000000" stroke="#323232" stroke-linecap="round" stroke-linejoin="round" stroke-miterlimit="5.1" stroke-width=".216" style="fill:#788158;paint-order:markers fill stroke;stroke-width:.137;stroke:#333"/></g><rect id="rect130" x="78" y="-1.83" width="2.7" height="8.31" rx=".285" ry=".23" fill="#818181" stop-color="#000000" style="fill-opacity:.345;fill:#e6e6e6;filter:url(#filter2212);paint-order:markers fill stroke"/><rect id="rect132" x="73.7" y="10.8" width="11.3" height="6.86" ry="1.83" fill="#818181" stop-color="#000000" stroke="#323232" stroke-linecap="round" stroke-linejoin="round" stroke-miterlimit="5.1" stroke-width=".0918" style="fill:#858665;paint-order:markers fill stroke;stroke:#404040"/></g><rect id="rect136" x="77.9" y="-4.97" width="2.94" height="2.66" rx=".228" ry="1.08" fill="#818181" stop-color="#000000" style="fill-opacity:.345;fill:#e6e6e6;paint-order:markers fill stroke"/></g><path id="rect1893" d="m13.1 16.6s1.72-0.209 2.91-0.209 2.86 0.169 2.91 0.209c0.0555 0.0398 0.121 0.194 0.247 0.247l0.643 0.271c0.126 0.0532-0.11 0.247-0.247 0.247h-7.25c-0.137 0-0.376-0.202-0.247-0.247l0.778-0.271c0.129-0.045 0.11-0.247 0.247-0.247z" style="fill-opacity:.888;fill:#b3921a;stop-color:#000000;stroke-width:.0302;stroke:#b5b5b5"/></g><metadata id="metadata144"><rdf:RDF><cc:Work rdf:about=""><dc:title>cannon</dc:title></cc:Work></rdf:RDF></metadata></svg>
