<?xml version="1.0" encoding="UTF-8"?>
<svg id="svg4866" width="100" height="100" version="1.1" viewBox="0 0 100 100" xmlns="http://www.w3.org/2000/svg" xmlns:cc="http://creativecommons.org/ns#" xmlns:dc="http://purl.org/dc/elements/1.1/" xmlns:rdf="http://www.w3.org/1999/02/22-rdf-syntax-ns#"><title id="title3256">enemypit</title><defs id="defs4863"><filter id="filter6484-3" x="-.0464" y="-.0509" width="1.09" height="1.1" color-interpolation-filters="sRGB"><feGaussianBlur id="feGaussianBlur6486-6" stdDeviation="0.1002619"/></filter><radialGradient id="radialGradient2114-6-8" cx="-271" cy="12.8" r="45.6" gradientTransform="matrix(1.44 0 0 1.44 170 -109)" gradientUnits="userSpaceOnUse"><stop id="stop6492-0" stop-color="#33332f" stop-opacity=".969" offset=".312"/><stop id="stop5283-1" stop-color="#7a4d3f" stop-opacity=".89" offset=".469"/><stop id="stop5293-1" stop-color="#b49384" stop-opacity=".864" offset=".508"/><stop id="stop5281-5" stop-color="#b49384" stop-opacity=".665" offset=".534"/><stop id="stop5291-4" stop-color="#b49376" stop-opacity="0" offset=".781"/></radialGradient></defs><g id="layer1"><g id="g2513" transform="matrix(-.478 -.712 .712 -.478 -2.16 247)"><g id="g2692"><path id="path2205" transform="translate(1.79e-6)" d="m172 154-0.656 0.189-6.14-2.79-2.85-2.89-6.76-3.97-6.04 0.384-6.93 5.3-3.53 4.24 0.355 4-1.04 2.77-2.1 3.5-5.4 2.89-1.51 7.26-2.92 5.19-3.34 5.13 3.67 5.93 4 7.66-0.471-8.01-1.81-5.42 4.14-8.02 1.77-6.19 2.8-5.18 3.03-6.02 5.32-4.26 7.72-4.06 9.4 0.526 7.41 3.9 1.5 0.0388 6.29-3.8-2.03 0.0285z" fill="#33332f" filter="url(#filter6484-3)" stop-color="#000000" stroke="#33332f" stroke-width=".355" style="-inkscape-stroke:none;font-variation-settings:normal"/><path id="circle2112-7-5" transform="rotate(206)" d="m-155-90.2a65.3 65.3 0 0 1-65.3 65.3 65.3 65.3 0 0 1-65.3-65.3 65.3 65.3 0 0 1 65.3-65.3 65.3 65.3 0 0 1 65.3 65.3z" fill="url(#radialGradient2114-6-8)" stop-color="#000000" stroke-width=".723" style="fill:url(#radialGradient2114-6-8)"/><g id="g2505" fill="#33332f" stroke="#33332f" stroke-width=".355"><path id="path2201" d="m153 214 2.23 1.34 2.17-2.84-0.832-3.88 1.82-2.12 4.58-2.16-0.961 4.02 2.49 2.78 1.94-2.84-1.48-3.09 4.9-0.547 5.76-3.01 0.976-2.94-0.456-2.69 0.703-5.34 5.24-1.99 3.52-0.349 0.553-16-0.337-2.69-1.49 0.44-0.585 0.966-2.63-8.46-3.65-9e-3 -5.61 5.04-2.39 0.0336-5.64-1.24-7.27 6.02-6.01 2.42-5.23 10.7 0.647 7.71-1.26 8.1-3.97 2.63 3.97 1.38 8.4 1.92 1.4 1.36-0.977 2.83z" filter="url(#filter6484-3)" stop-color="#000000" style="-inkscape-stroke:none;font-variation-settings:normal"/><path id="path2203" d="m187 196-1.77-3.85-3.72-1.15-3.05 1.5-0.767 2.63 1.33 2.54 3.09 1.8 2.28-0.0321 2.19-2.51z" filter="url(#filter6484-3)" stop-color="#000000" style="-inkscape-stroke:none;font-variation-settings:normal"/></g></g></g></g><metadata id="metadata3254"><rdf:RDF><cc:Work rdf:about=""><dc:title>enemypit</dc:title></cc:Work></rdf:RDF></metadata></svg>
