<?xml version="1.0" encoding="UTF-8"?>
<svg id="svg146" width="120" height="120" version="1.1" viewBox="0 0 31.8 31.8" xmlns="http://www.w3.org/2000/svg" xmlns:cc="http://creativecommons.org/ns#" xmlns:dc="http://purl.org/dc/elements/1.1/" xmlns:rdf="http://www.w3.org/1999/02/22-rdf-syntax-ns#"><defs id="defs5854"><filter id="filter7865" x="-.0604" y="-.0174" width="1.12" height="1.03" style="color-interpolation-filters:sRGB"><feGaussianBlur id="feGaussianBlur7867" stdDeviation="0.047470343"/></filter><filter id="filter7869" x="-.0604" y="-.0174" width="1.12" height="1.03" style="color-interpolation-filters:sRGB"><feGaussianBlur id="feGaussianBlur7871" stdDeviation="0.047470344"/></filter></defs><title id="title2">loader</title><g id="g114" stroke="#000" style="fill:#3d2f12;stroke:#353535"><g id="g112" stroke="#000" stroke-linecap="round" stroke-linejoin="round" stroke-miterlimit="5.1" stroke-width=".0461" style="fill:#3d2f12;stroke:#353535"><path id="path108" transform="translate(-.0938 -1.78)" d="m9.34 14.5c0.36 6e-3 1.12 0.974 1.12 2.18v3.43c0 1.21-0.502 2.18-1.12 2.18-1.09 0-1.12 0.0182-1.12-0.695v-4.91c0-1.21 0.777-2.19 1.12-2.18z" fill="#4c4c4c" stop-color="#000000" style="fill:#3d2f12;paint-order:markers fill stroke;stroke-opacity:.459;stroke-width:.053;stroke:#ff8500"/><path id="path110" transform="translate(-.0938 -1.78)" d="m22.6 14.5c-0.36 6e-3 -1.12 0.974-1.12 2.18v3.43c0 1.21 0.502 2.18 1.12 2.18 1.09 0 1.12 0.0182 1.12-0.695v-4.91c0-1.21-0.777-2.19-1.12-2.18z" fill="#4d4d4d" stop-color="#000000" style="-inkscape-stroke:none;fill:#3d2f12;font-variation-settings:normal;paint-order:markers fill stroke;stop-color:#000000;stroke-linecap:butt;stroke-linejoin:miter;stroke-miterlimit:5.1;stroke-opacity:.459;stroke-width:.053;stroke:#ff8500"/><path id="path7861" d="m9.25 13.3c0.303 5e-3 0.942 0.82 0.942 1.83v2.89c0 1.02-0.422 1.83-0.942 1.83-0.917 0-0.942 0.0153-0.942-0.585v-4.13c0-1.02 0.654-1.84 0.942-1.83z" fill="#4c4c4c" stop-color="#000000" style="fill-opacity:.277;fill:#ffdbdb;filter:url(#filter7869);paint-order:markers fill stroke;stroke:none"/><path id="path7863" d="m22.5 13.3c-0.303 5e-3 -0.942 0.82-0.942 1.83v2.89c0 1.02 0.422 1.83 0.942 1.83 0.917 0 0.942 0.0153 0.942-0.585v-4.13c0-1.02-0.654-1.84-0.942-1.83z" fill="#4c4c4c" stop-color="#000000" style="fill-opacity:.277;fill:#ffdbdb;filter:url(#filter7865);paint-order:markers fill stroke;stroke:none"/></g></g><metadata id="metadata144"><rdf:RDF><cc:Work rdf:about=""><dc:title>loader</dc:title></cc:Work></rdf:RDF></metadata></svg>
